<?xml version="1.0" standalone="no"?>
<!DOCTYPE svg PUBLIC "-//W3C//DTD SVG 20010904//EN"
 "http://www.w3.org/TR/2001/REC-SVG-20010904/DTD/svg10.dtd">
<svg version="1.0" xmlns="http://www.w3.org/2000/svg"
 width="500.000000pt" height="500.000000pt" viewBox="0 0 500.000000 500.000000"
 preserveAspectRatio="xMidYMid meet">
<metadata>
Created by potrace 1.11, written by Peter Selinger 2001-2013
</metadata>
<g transform="translate(0.000000,500.000000) scale(0.100000,-0.100000)"
fill="#000000" stroke="none">
<path d="M3645 4878 c-49 -18 -100 -53 -293 -202 -302 -233 -384 -294 -442
-325 l-55 -29 -315 -7 c-173 -3 -334 -8 -357 -11 -42 -5 -44 -4 -135 84 -322
310 -406 373 -499 380 -56 4 -60 3 -93 -30 -49 -49 -60 -128 -54 -391 l5 -208
-31 -16 c-144 -74 -276 -199 -347 -327 -160 -289 -305 -856 -316 -1232 -9
-289 28 -406 171 -549 83 -83 197 -174 298 -238 66 -42 257 -137 275 -137 7 0
13 -5 13 -10 0 -7 -20 -7 -57 -3 -32 5 -148 8 -258 7 -162 0 -223 -5 -320 -23
-151 -28 -165 -36 -165 -100 0 -154 153 -414 377 -640 45 -47 83 -88 83 -92 0
-4 -15 -39 -34 -76 -51 -101 -69 -182 -64 -283 6 -125 56 -204 142 -226 28 -7
28 -7 22 -63 -4 -31 -9 -73 -13 -93 -6 -38 -5 -38 30 -38 37 0 46 11 48 58 0
15 6 47 12 71 l12 45 69 13 c111 20 170 54 268 156 l88 90 57 -16 c232 -64
338 -83 543 -97 96 -6 184 -6 260 1 63 5 156 12 205 15 111 5 175 19 238 51
l49 24 111 -108 c62 -60 130 -122 152 -138 22 -16 42 -32 45 -35 23 -23 77
-52 106 -57 53 -9 73 14 124 142 42 102 119 370 139 479 18 96 14 187 -9 216
-17 22 -27 25 -96 27 -42 1 -87 -2 -100 -7 -33 -13 -31 1 11 76 42 75 43 86 9
113 l-26 21 -40 -77 c-83 -164 -224 -369 -314 -458 -186 -184 -343 -234 -506
-162 -230 103 -207 297 71 580 58 60 158 152 221 205 63 53 117 99 120 102 3
3 28 23 55 44 28 22 54 43 59 47 13 11 -22 49 -44 49 -15 0 -283 -214 -370
-297 -19 -18 -39 -33 -43 -33 -5 0 -43 21 -85 47 -86 52 -350 187 -427 219
-45 19 -187 71 -303 112 -23 8 -41 16 -39 18 2 2 30 -1 63 -6 230 -39 876 -31
992 11 25 10 29 31 7 49 -31 26 -81 28 -181 7 -86 -18 -137 -21 -394 -21 -486
-1 -705 38 -978 172 -276 136 -519 339 -572 479 -62 163 -48 485 35 838 14 60
28 111 29 113 2 2 2 -34 -1 -80 -7 -103 21 -226 66 -291 90 -131 243 -201 436
-200 167 0 261 45 344 164 86 122 140 296 148 479 4 97 2 128 -17 200 -27 107
-54 153 -128 221 -68 64 -130 88 -238 96 -135 10 -249 -35 -365 -145 -67 -62
-139 -157 -153 -199 -4 -10 -15 -29 -26 -43 -44 -55 93 295 160 410 80 137
270 274 470 338 232 75 453 101 925 111 204 5 379 12 390 16 38 16 200 129
329 229 243 190 382 292 429 315 42 20 48 21 75 7 96 -50 166 -273 197 -631 6
-65 15 -97 51 -170 96 -199 184 -501 231 -790 14 -86 18 -166 17 -365 0 -224
-3 -268 -22 -360 -52 -241 -136 -441 -247 -587 -30 -40 -55 -77 -55 -81 0 -5
9 -20 19 -34 31 -39 127 -226 156 -302 125 -337 198 -823 193 -1284 l-3 -202
36 0 36 0 7 137 c6 135 -6 450 -24 582 -62 476 -158 816 -295 1041 l-36 59 56
83 c228 338 310 815 230 1343 -39 255 -138 596 -230 790 -38 81 -43 101 -50
190 -18 271 -81 489 -171 594 -56 65 -111 83 -179 59z m-2061 -193 c49 -23
157 -113 305 -252 112 -107 130 -128 115 -134 -11 -4 -68 -15 -129 -23 -91
-13 -315 -67 -376 -91 -14 -5 -17 14 -22 162 -9 246 10 353 61 353 7 0 28 -7
46 -15z m8 -1034 c106 -45 169 -141 190 -291 26 -187 -47 -447 -162 -573 -41
-45 -60 -57 -108 -71 -71 -20 -199 -21 -268 -2 -118 31 -196 94 -242 196 -22
47 -26 69 -26 150 1 228 128 460 313 568 94 55 208 64 303 23z m-87 -2086
c113 -18 235 -45 342 -76 l72 -22 -2 -103 c-2 -96 -7 -118 -22 -95 -3 5 -30
13 -59 16 -70 9 -150 -14 -234 -66 -35 -21 -65 -39 -66 -39 -2 0 -1 11 2 25
13 70 -101 205 -208 247 -75 29 -219 31 -270 4 -87 -46 -102 -92 -48 -145 61
-60 286 -154 401 -167 32 -4 57 -10 57 -13 -1 -3 -21 -22 -46 -41 -50 -39
-212 -202 -236 -239 l-17 -23 -28 20 c-36 26 -175 178 -234 257 -100 133 -162
254 -183 356 -7 35 -12 67 -10 70 6 10 87 28 199 44 127 18 449 13 590 -10z
m-315 -130 c0 -2 -11 -21 -25 -41 -27 -39 -31 -73 -15 -105 6 -10 8 -19 4 -19
-16 0 -115 64 -129 83 -14 19 -13 23 3 40 24 23 87 46 130 47 17 0 32 -2 32
-5z m289 -155 c12 -22 21 -52 19 -68 -3 -23 -8 -27 -38 -30 -39 -4 -148 16
-155 29 -3 4 4 11 16 14 31 10 59 64 59 113 l0 43 38 -31 c21 -17 49 -49 61
-70z m397 -87 c13 -8 37 -34 54 -56 24 -33 30 -51 30 -91 -1 -151 -178 -436
-424 -681 -77 -77 -155 -109 -263 -109 -57 0 -78 4 -100 20 -45 34 -64 67 -70
126 -23 222 173 507 501 729 128 86 208 104 272 62z m694 -18 c7 -8 16 -15 21
-15 15 0 98 -55 99 -66 0 -6 -12 -21 -26 -35 -51 -47 -154 -187 -183 -250 -53
-110 -58 -171 -26 -274 5 -17 0 -23 -30 -34 -24 -8 -52 -33 -83 -73 l-47 -60
-65 7 c-188 19 -480 86 -480 110 0 3 24 36 53 73 119 148 197 293 224 411 16
72 21 83 43 88 14 4 43 14 65 24 56 26 101 25 116 -2 6 -12 15 -67 21 -123 5
-55 12 -125 14 -153 4 -42 9 -53 23 -53 35 0 141 133 207 260 23 43 29 68 29
118 0 64 4 72 25 47z m938 -342 c-12 -45 -4 -130 19 -196 19 -52 74 -117 99
-117 19 0 14 -30 -23 -140 -62 -184 -97 -260 -118 -260 -22 0 -162 110 -275
218 l-105 99 78 73 c79 74 186 204 245 297 34 52 44 61 74 62 14 1 15 -4 6
-36z"/>
<path d="M1414 3361 c-46 -28 -71 -66 -85 -126 -10 -46 -9 -61 5 -107 22 -65
46 -93 102 -114 35 -13 49 -14 78 -4 79 26 125 94 126 184 0 136 -125 229
-226 167z"/>
<path d="M3687 4633 c-3 -5 -41 -79 -86 -165 -97 -189 -104 -226 -46 -276 21
-19 62 -39 102 -51 121 -34 184 -34 170 2 -3 9 -27 109 -52 224 -53 237 -72
293 -88 266z"/>
<path d="M2977 3948 c-288 -28 -520 -237 -599 -539 -31 -117 -30 -299 0 -419
48 -185 183 -302 417 -362 127 -32 334 -32 452 0 273 74 377 169 418 385 81
425 -111 827 -438 918 -62 17 -172 25 -250 17z m202 -104 c97 -24 159 -59 226
-128 67 -69 105 -132 140 -235 68 -202 55 -474 -29 -601 -74 -113 -260 -180
-495 -180 -318 0 -513 120 -562 345 -27 127 -9 324 42 441 116 273 406 425
678 358z"/>
<path d="M2944 3441 c-70 -32 -134 -124 -134 -194 0 -45 25 -109 58 -148 134
-156 385 -64 385 141 0 159 -165 266 -309 201z"/>
<path d="M1890 2764 c-100 -37 -119 -60 -101 -117 28 -84 147 -227 189 -227
17 0 12 -53 -14 -137 -23 -73 -55 -88 -194 -87 -126 1 -192 20 -239 68 -42 43
-53 83 -33 118 13 22 13 29 3 42 -8 9 -17 16 -22 16 -20 0 -49 -66 -49 -110 0
-82 56 -142 167 -179 76 -25 254 -28 348 -6 57 14 64 13 137 -10 255 -80 558
-48 619 67 30 57 -1 187 -38 157 -10 -9 -13 -23 -9 -49 12 -76 -40 -117 -184
-147 -137 -29 -366 14 -398 74 -6 10 -17 54 -25 96 l-15 77 47 21 c76 33 191
160 191 211 0 30 -58 85 -108 103 -47 17 -242 30 -272 19z"/>
<path d="M1675 2460 c-8 -26 6 -43 31 -38 13 2 19 12 19 28 0 34 -40 41 -50
10z"/>
<path d="M2337 2453 c-4 -3 -7 -17 -7 -30 0 -18 5 -23 25 -23 14 0 28 7 31 15
11 27 -30 58 -49 38z"/>
<path d="M1594 2365 c-8 -21 2 -45 19 -45 20 0 40 27 33 45 -7 19 -45 20 -52
0z"/>
<path d="M1736 2344 c-7 -19 10 -44 29 -44 7 0 18 7 25 15 10 12 10 18 0 30
-16 20 -46 19 -54 -1z"/>
<path d="M2423 2353 c-20 -7 -15 -41 6 -53 15 -7 23 -6 35 6 12 12 13 20 6 35
-11 19 -23 22 -47 12z"/>
<path d="M2272 2338 c-16 -16 -15 -23 3 -42 17 -17 40 -12 49 9 5 14 -18 45
-33 45 -4 0 -12 -5 -19 -12z"/>
</g>
</svg>
