<?xml version="1.0" standalone="no"?>
<!DOCTYPE svg PUBLIC "-//W3C//DTD SVG 20010904//EN"
 "http://www.w3.org/TR/2001/REC-SVG-20010904/DTD/svg10.dtd">
<svg version="1.0" xmlns="http://www.w3.org/2000/svg"
 width="333.000000pt" height="333.000000pt" viewBox="0 0 333.000000 333.000000"
 preserveAspectRatio="xMidYMid meet">
<metadata>
Created by potrace 1.11, written by Peter Selinger 2001-2013
</metadata>
<g transform="translate(0.000000,333.000000) scale(0.100000,-0.100000)"
fill="#000000" stroke="none">
<path d="M1265 2671 c-21 -9 -67 -57 -98 -101 -32 -47 -12 -150 30 -150 13 0
13 -3 -1 -25 -9 -13 -16 -33 -16 -44 0 -11 -4 -22 -9 -25 -5 -3 -16 -41 -26
-83 -21 -100 -43 -180 -60 -218 -23 -53 -115 -334 -115 -353 0 -10 -11 -42
-25 -70 -14 -29 -25 -58 -25 -66 0 -7 -15 -47 -34 -88 -19 -41 -43 -103 -52
-139 -10 -35 -21 -66 -25 -69 -10 -8 -40 -70 -34 -70 3 0 -1 -12 -8 -27 -8
-16 -15 -56 -16 -90 -2 -51 3 -72 28 -120 27 -53 85 -113 109 -113 6 0 32 -15
59 -33 26 -17 75 -40 108 -51 33 -10 69 -22 80 -27 270 -113 275 -114 545
-113 324 0 402 19 579 137 40 27 78 50 85 51 30 5 58 32 102 98 64 96 80 174
59 293 -19 107 -31 145 -50 159 -9 6 -27 52 -40 101 -14 50 -28 97 -31 105 -4
8 -9 24 -11 35 -5 32 -45 126 -70 170 -80 136 -93 177 -103 322 -11 152 -25
241 -45 289 -7 17 -13 71 -14 119 -2 120 -6 132 -55 157 -56 29 -132 29 -174
0 l-31 -22 -82 21 c-99 26 -300 32 -337 11 -19 -11 -27 -10 -59 13 -39 26 -97
32 -138 16z m85 -11 c13 -9 13 -10 0 -9 -8 0 -24 4 -35 9 l-20 9 20 0 c11 0
27 -4 35 -9z m-90 -30 c0 -5 -7 -10 -16 -10 -8 0 -12 5 -9 10 3 6 10 10 16 10
5 0 9 -4 9 -10z m547 -16 c37 -10 70 -20 73 -24 3 -4 32 -21 65 -39 134 -70
197 -179 215 -370 17 -185 21 -261 13 -262 -4 0 -19 -3 -33 -5 -97 -18 -613
-50 -750 -47 -52 2 -88 11 -180 48 -63 25 -116 47 -117 49 -2 2 8 38 22 80 14
43 35 119 45 171 27 125 46 167 120 255 64 76 104 111 175 150 37 20 50 21
162 16 67 -3 153 -13 190 -22z m238 16 c25 -11 -1 -11 -35 0 -20 6 -21 8 -5 8
11 0 29 -3 40 -8z m-635 -10 c0 -5 -5 -10 -11 -10 -5 0 -7 5 -4 10 3 6 8 10
11 10 2 0 4 -4 4 -10z m503 -15 c-3 -9 -8 -14 -10 -11 -3 3 -2 9 2 15 9 16 15
13 8 -4z m207 -25 c0 -5 -2 -10 -4 -10 -3 0 -8 5 -11 10 -3 6 -1 10 4 10 6 0
11 -4 11 -10z m-867 -27 c-7 -3 -13 -11 -13 -18 0 -8 -4 -17 -10 -20 -5 -3
-10 1 -10 9 0 18 30 49 39 40 3 -4 0 -9 -6 -11z m832 7 c-3 -5 -14 -10 -23
-10 -15 0 -15 2 -2 10 20 13 33 13 25 0z m42 -42 c-3 -8 -6 -5 -6 6 -1 11 2
17 5 13 3 -3 4 -12 1 -19z m-887 -42 c0 -2 -8 -10 -17 -17 -16 -13 -17 -12 -4
4 13 16 21 21 21 13z m-4 -587 c8 -14 -10 -11 -32 6 -18 13 -18 14 4 8 12 -3
25 -9 28 -14z m829 -19 c3 -5 -3 -10 -14 -10 -12 0 -21 5 -21 10 0 6 6 10 14
10 8 0 18 -4 21 -10z m-55 -10 c0 -5 -5 -10 -11 -10 -5 0 -7 5 -4 10 3 6 8 10
11 10 2 0 4 -4 4 -10z m-46 -8 c2 -4 -4 -8 -14 -8 -10 0 -16 4 -14 8 3 4 9 8
14 8 5 0 11 -4 14 -8z m-724 -22 c0 -5 -7 -7 -15 -4 -8 4 -15 8 -15 10 0 2 7
4 15 4 8 0 15 -4 15 -10z m-83 -26 c-3 -3 -12 -4 -19 -1 -8 3 -5 6 6 6 11 1
17 -2 13 -5z m583 -4 c0 -13 -40 -13 -60 0 -11 7 -5 10 23 10 20 0 37 -4 37
-10z m106 1 c-5 -8 -56 -3 -56 5 0 2 14 4 31 4 16 0 28 -4 25 -9z m255 -1 c5
0 9 -5 9 -10 0 -7 -6 -7 -17 -2 -10 5 -24 7 -32 4 -9 -3 -11 0 -6 7 4 7 14 10
22 7 8 -3 19 -6 24 -6z m-823 -68 c-10 -2 -18 -7 -18 -12 0 -7 -10 -7 -40 0
-3 0 6 7 19 14 14 8 32 11 40 8 14 -6 13 -7 -1 -10z m-218 -58 c0 -3 -5 -14
-10 -25 -16 -28 -32 -23 -18 6 10 22 28 35 28 19z m825 -64 c66 -6 136 -16
155 -21 19 -4 68 -13 108 -19 40 -6 91 -17 115 -25 23 -8 50 -15 60 -15 18 0
21 -4 61 -110 68 -178 55 -404 -30 -540 -36 -58 -144 -149 -221 -186 -116 -56
-194 -68 -468 -68 l-240 -1 -100 37 c-55 20 -154 55 -220 79 -66 23 -124 46
-130 51 -5 5 -26 18 -45 31 -127 81 -129 395 -5 653 14 28 25 56 25 62 0 6 11
24 25 40 l25 30 182 -2 c100 0 232 4 293 10 127 12 241 10 410 -6z"/>
</g>
</svg>
